HIERARCHY
ROOT Hips
{
  OFFSET 0 95.1654 0
  CHANNELS 6 Xposition Yposition Zposition Zrotation Xrotation Yrotation
  JOINT Spine
  {
    OFFSET 0 4.73261 7.09891
    CHANNELS 3 Zrotation Xrotation Yrotation
    JOINT Spine1
    {
      OFFSET 0 0 9.46521
      CHANNELS 3 Zrotation Xrotation Yrotation
      JOINT Spine2
      {
        OFFSET 0 0 9.46522
        CHANNELS 3 Zrotation Xrotation Yrotation
        JOINT Spine3
        {
          OFFSET 0 0 9.4652
          CHANNELS 3 Zrotation Xrotation Yrotation
          JOINT Neck
          {
            OFFSET 0 -3.54944 24.8465
            CHANNELS 3 Zrotation Xrotation Yrotation
            JOINT Head
            {
              OFFSET 0 0 13.0147
              CHANNELS 3 Zrotation Xrotation Yrotation
              End Site
              {
                OFFSET 0 0 15.3218
              }
            }
          }
          JOINT RightShoulder
          {
            OFFSET -3.19949 -5.33249 17.2772
            CHANNELS 3 Zrotation Xrotation Yrotation
            JOINT RightArm
            {
              OFFSET 15.8908 0 -1.14715e-05
              CHANNELS 3 Zrotation Xrotation Yrotation
              JOINT RightForeArm
              {
                OFFSET 29.5436 -1.3269e-05 3.60762e-05
                CHANNELS 3 Zrotation Xrotation Yrotation
                JOINT RightHand
                {
                  OFFSET 23.2652 0 0
                  CHANNELS 3 Zrotation Xrotation Yrotation
                  JOINT RightHandEnd
                  {
                    OFFSET 6.96115 0 0
                    CHANNELS 3 Zrotation Xrotation Yrotation
                    End Site
                    {
                      OFFSET 6.96115 0 0
                    }
                  }
                  JOINT RightHandThumb1
                  {
                    OFFSET 2.78447 -4.64077 1.85632
                    CHANNELS 3 Zrotation Xrotation Yrotation
                    JOINT RightHandThumb2
                    {
                      OFFSET 6.96116 0 1.30546e-05
                      CHANNELS 3 Zrotation Xrotation Yrotation
                      End Site
                      {
                        OFFSET 0 0 0
                      }
                    }
                  }
                }
              }
            }
          }
          JOINT LeftShoulder
          {
            OFFSET 3.19949 -5.33248 17.2772
            CHANNELS 3 Zrotation Xrotation Yrotation
            JOINT LeftArm
            {
              OFFSET 15.8908 0 0
              CHANNELS 3 Zrotation Xrotation Yrotation
              JOINT LeftForeArm
              {
                OFFSET 29.5437 -1.15588e-05 -4.19759e-05
                CHANNELS 3 Zrotation Xrotation Yrotation
                JOINT LeftHand
                {
                  OFFSET 23.2652 0 0
                  CHANNELS 3 Zrotation Xrotation Yrotation
                  JOINT LeftHandEnd
                  {
                    OFFSET 6.96115 0 0
                    CHANNELS 3 Zrotation Xrotation Yrotation
                    End Site
                    {
                      OFFSET 6.96115 0 0
                    }
                  }
                  JOINT LeftHandThumb1
                  {
                    OFFSET 2.78446 -4.64077 -1.8563
                    CHANNELS 3 Zrotation Xrotation Yrotation
                    JOINT LeftHandThumb2
                    {
                      OFFSET 6.96116 0 0
                      CHANNELS 3 Zrotation Xrotation Yrotation
                      End Site
                      {
                        OFFSET 0 0 0
                      }
                    }
                  }
                }
              }
            }
          }
        }
      }
    }
  }
  JOINT RightUpLeg
  {
    OFFSET -9.49182 0 -2.77289
    CHANNELS 3 Zrotation Xrotation Yrotation
    JOINT RightLeg
    {
      OFFSET 41.2118 -0.0130352 -0.000556472
      CHANNELS 3 Zrotation Xrotation Yrotation
      JOINT RightFoot
      {
        OFFSET 45.6092 0 0
        CHANNELS 3 Zrotation Xrotation Yrotation
        JOINT RightToeBase
        {
          OFFSET 17.0969 0 0
          CHANNELS 3 Zrotation Xrotation Yrotation
          End Site
          {
            OFFSET 7.67878 0 0
          }
        }
      }
    }
  }
  JOINT LeftUpLeg
  {
    OFFSET 9.49182 0 -2.77289
    CHANNELS 3 Zrotation Xrotation Yrotation
    JOINT LeftLeg
    {
      OFFSET 41.2118 -0.0699684 -0.00851748
      CHANNELS 3 Zrotation Xrotation Yrotation
      JOINT LeftFoot
      {
        OFFSET 45.6091 0 0
        CHANNELS 3 Zrotation Xrotation Yrotation
        JOINT LeftToeBase
        {
          OFFSET 17.0969 0 0
          CHANNELS 3 Zrotation Xrotation Yrotation
          End Site
          {
            OFFSET 7.67878 0 0
          }
        }
      }
    }
  }
}
MOTION
Frames:	4
Frame Time:	0.00833333
0 95.1654 0 -0.460788 -88.5547 0.00169259 -0.0888431 -9.73535 -0.178765 -0.0639673 5.25931 -0.358274 -0.176358 8.21643 0.636025 -0.131933 0.0722312 0.153736 -0.689572 4.30355 -1.9731 -0.333304 -14.7222 0.123455 -5.53011 4.61718 173.239 -38.4296 -1.53475 -71.2933 -22.628 -1.09501e-05 -1.03745e-05 3.58224 4.88787 6.88803 4.17997e-08 -90 4.17997e-08 165 10 -180 -3.18055e-15 -3.18055e-15 -0 3.70823 0.429818 1.35382 -34.9068 3.5146 74.778 -22.2716 -1.79845e-05 5.92599e-05 4.38227 -11.5936 -4.84915 -1.49285e-08 90 1.49285e-08 165 10 -180 3.18055e-15 1.43125e-14 -2.38542e-15 2.26699 4.0822 89.4274 -0.0181191 0.00260716 0.000777766 -76.8364 2.13405 8.45868 -18.5961 3.85099e-08 -7.75396e-06 6.69082 3.01374 89.1309 2.23006 0.000317642 0.0118364 -77.1629 -0.0776442 4.1619 -20.2574 9.20591e-07 4.7981e-06 
0.00944673 95.1646 0.00404017 0.674989 -88.5605 1.13673 -0.0822247 -9.73731 -0.173489 -0.0651678 5.25698 -0.358555 -0.194958 8.21788 0.626186 -0.137156 0.0737943 0.15125 -0.674514 4.31557 -1.94428 -0.314621 -14.7016 0.139129 -5.53423 4.61659 173.237 -38.4482 -1.52255 -71.2845 -22.6136 -1.1084e-05 3.63284e-06 3.59781 4.88556 6.89567 5.97139e-09 -90 5.97139e-09 165 10 -180 -1.69216e-07 -5.82294e-08 -7.6005e-07 3.72251 0.447835 1.389 -35.0021 3.4998 74.7318 -22.3209 -2.22362e-05 4.96451e-05 4.21776 -11.6086 -5.00325 -1.49285e-08 90 1.49285e-08 165 10 -180 -7.99501e-07 -1.18735e-06 2.72129e-06 2.24666 4.07651 89.4332 0.00141703 0.0025939 -4.87189e-05 -76.8422 2.14512 8.46035 -18.5939 -4.58928e-07 -5.40728e-06 6.65875 2.99992 89.1396 2.25046 0.000203366 0.0089247 -77.1642 -0.0739369 4.15762 -20.2576 3.62839e-08 8.04027e-06 
0.0146947 95.165 0.00185803 1.86489 -88.5662 2.32593 -0.0752022 -9.73925 -0.167996 -0.0664454 5.25463 -0.35908 -0.21421 8.21976 0.616089 -0.14257 0.0754693 0.14875 -0.659452 4.32756 -1.91452 -0.296013 -14.6805 0.154005 -5.53837 4.61587 173.237 -38.4706 -1.51044 -71.2762 -22.5973 -1.17287e-05 1.95791e-05 3.61454 4.88328 6.90288 5.97138e-09 -90 5.97139e-09 165 10 -180 -3.56244e-07 -1.22588e-07 -1.6001e-06 3.73735 0.466447 1.42565 -35.1019 3.48435 74.6837 -22.3644 -2.74797e-05 4.0385e-05 4.04191 -11.6277 -5.16311 -1.19428e-08 90 1.19428e-08 165 10 -180 -1.68316e-06 -2.49968e-06 5.72902e-06 2.2243 4.06732 89.4395 0.0250506 0.00257735 -0.00104896 -76.8479 2.1567 8.46055 -18.5921 -1.01114e-06 -3.01149e-06 6.6243 2.98393 89.1486 2.27413 7.97703e-05 0.00580515 -77.1661 -0.0700793 4.15189 -20.2578 -9.55457e-07 1.17664e-05 
0.0241802 95.1634 0.0150512 2.97221 -88.5705 3.43247 -0.0689874 -9.74124 -0.162937 -0.0675689 5.25232 -0.359117 -0.232157 8.22079 0.606509 -0.147601 0.0769213 0.146281 -0.644416 4.33963 -1.88663 -0.277277 -14.6603 0.170451 -5.54249 4.61541 173.234 -38.4855 -1.49816 -71.2669 -22.5849 -1.13411e-05 3.16477e-05 3.62894 4.88095 6.91096 1.79142e-08 -90 1.79142e-08 165 10 -180 -5.07648e-07 -1.74688e-07 -2.28015e-06 3.75105 0.483895 1.45936 -35.1927 3.47044 74.6394 -22.4197 -3.07146e-05 3.04047e-05 3.88859 -11.6371 -5.31159 5.97139e-09 90 -5.97139e-09 165 10 -180 -2.3985e-06 -3.56205e-06 8.16386e-06 2.20601 4.06512 89.445 0.0404892 0.00256653 -0.00170167 -76.8537 2.16728 8.4637 -18.5896 -1.45354e-06 -7.1386e-07 6.5946 2.97226 89.1569 2.29125 -2.82957e-05 0.00310143 -77.1669 -0.066522 4.14906 -20.2579 -1.73236e-06 1.45246e-05 
